<svg width="1188" height="402" viewBox="0 0 1188 402" fill="none" xmlns="http://www.w3.org/2000/svg">
<circle cx="355" cy="201" r="135" fill="#0084FF"/>
<path d="M585.13 258.7C577.31 258.7 571.587 256.887 567.96 253.26C564.447 249.633 562.69 243.853 562.69 235.92V142.42H585.64V234.05C585.64 236.883 586.207 238.867 587.34 240C588.473 241.02 590.117 241.53 592.27 241.53C595.217 241.53 597.88 241.133 600.26 240.34V256.15C595.953 257.85 590.91 258.7 585.13 258.7ZM655.315 258.7C641.375 258.7 630.325 255.243 622.165 248.33C614.005 241.303 609.925 230.707 609.925 216.54C609.925 203.733 613.325 193.59 620.125 186.11C627.038 178.517 637.295 174.72 650.895 174.72C663.361 174.72 672.881 178.007 679.455 184.58C686.141 191.04 689.485 199.54 689.485 210.08V224.7H631.175C632.421 231.16 635.368 235.58 640.015 237.96C644.775 240.34 651.461 241.53 660.075 241.53C664.381 241.53 668.745 241.133 673.165 240.34C677.698 239.547 681.551 238.527 684.725 237.28V253.6C680.985 255.3 676.621 256.547 671.635 257.34C666.648 258.247 661.208 258.7 655.315 258.7ZM631.175 210.59H669.425V206.17C669.425 201.523 668.065 197.897 665.345 195.29C662.625 192.57 658.035 191.21 651.575 191.21C643.981 191.21 638.655 192.74 635.595 195.8C632.648 198.86 631.175 203.79 631.175 210.59ZM746.603 258.7C732.21 258.7 721.16 255.13 713.453 247.99C705.86 240.85 702.063 230.423 702.063 216.71C702.063 202.543 706.143 192.003 714.303 185.09C722.577 178.177 733.57 174.72 747.283 174.72C752.95 174.72 757.823 175.117 761.903 175.91C765.983 176.703 769.95 178.007 773.803 179.82V196.31C770.97 194.95 767.683 193.873 763.943 193.08C760.203 192.287 756.18 191.89 751.873 191.89C743.26 191.89 736.687 193.703 732.153 197.33C727.62 200.843 725.353 207.303 725.353 216.71C725.353 225.323 727.393 231.613 731.473 235.58C735.667 239.547 742.41 241.53 751.703 241.53C755.67 241.53 759.523 241.133 763.263 240.34C767.117 239.547 770.687 238.357 773.973 236.77V253.77C766.38 257.057 757.257 258.7 746.603 258.7ZM820.431 258.7C811.138 258.7 804.225 256.263 799.691 251.39C795.271 246.517 793.061 239.887 793.061 231.5V194.1H781.671V176.42H793.061V159.08L816.011 152.28V176.42H836.411L835.051 194.1H816.011V229.97C816.011 234.39 817.031 237.45 819.071 239.15C821.111 240.737 824.285 241.53 828.591 241.53C831.765 241.53 835.051 240.963 838.451 239.83V255.64C835.958 256.66 833.238 257.397 830.291 257.85C827.345 258.417 824.058 258.7 820.431 258.7ZM879.979 258.7C870.346 258.7 862.809 256.037 857.369 250.71C852.042 245.27 849.379 237.337 849.379 226.91V176.42H872.329V226.4C872.329 231.84 873.632 235.807 876.239 238.3C878.846 240.68 882.756 241.87 887.969 241.87C891.936 241.87 895.562 241.077 898.849 239.49C902.249 237.903 905.139 235.92 907.519 233.54V176.42H930.469V257H909.219L908.369 249.35C904.969 252.07 900.946 254.337 896.299 256.15C891.766 257.85 886.326 258.7 879.979 258.7ZM950.004 257V176.42H971.254L972.274 184.75C975.901 182.483 980.378 180.443 985.704 178.63C991.144 176.703 996.471 175.4 1001.68 174.72V192.06C998.624 192.513 995.281 193.193 991.654 194.1C988.028 195.007 984.571 196.027 981.284 197.16C977.998 198.293 975.221 199.483 972.954 200.73V257H950.004ZM1028.53 286.92C1025.01 286.92 1021.9 286.693 1019.18 286.24C1016.46 285.9 1013.79 285.22 1011.19 284.2V268.05C1013.11 268.73 1014.87 269.183 1016.46 269.41C1018.16 269.637 1019.86 269.75 1021.56 269.75C1026.2 269.75 1029.77 268.673 1032.27 266.52C1034.87 264.367 1037.48 260.74 1040.09 255.64L1004.05 176.42H1028.02L1051.65 231.16L1075.11 176.42H1098.91L1067.12 251.39C1064.17 258.417 1060.94 264.593 1057.43 269.92C1054.03 275.36 1050 279.553 1045.36 282.5C1040.71 285.447 1035.1 286.92 1028.53 286.92Z" fill="white"/>
<g clip-path="url(#clip0_3_55)">
<circle cx="220" cy="201" r="135" fill="#70B01F"/>
<circle cx="355" cy="201" r="135" fill="#156884"/>
</g>
<defs>
<clipPath id="clip0_3_55">
<rect x="85" y="66" width="270" height="270" rx="135" fill="white"/>
</clipPath>
</defs>
</svg>
