<svg width="550" height="210" viewBox="0 0 550 210" fill="none" xmlns="http://www.w3.org/2000/svg">
<g clip-path="url(#clip0_5_2)">
<path d="M32.13 166.7C24.31 166.7 18.5867 164.887 14.96 161.26C11.4467 157.633 9.69 151.853 9.69 143.92V50.42H32.64V142.05C32.64 144.883 33.2067 146.867 34.34 148C35.4733 149.02 37.1167 149.53 39.27 149.53C42.2167 149.53 44.88 149.133 47.26 148.34V164.15C42.9533 165.85 37.91 166.7 32.13 166.7ZM102.315 166.7C88.3748 166.7 77.3248 163.243 69.1648 156.33C61.0048 149.303 56.9248 138.707 56.9248 124.54C56.9248 111.733 60.3248 101.59 67.1248 94.11C74.0381 86.5167 84.2948 82.72 97.8948 82.72C110.361 82.72 119.881 86.0067 126.455 92.58C133.141 99.04 136.485 107.54 136.485 118.08V132.7H78.1748C79.4214 139.16 82.3681 143.58 87.0148 145.96C91.7748 148.34 98.4614 149.53 107.075 149.53C111.381 149.53 115.745 149.133 120.165 148.34C124.698 147.547 128.551 146.527 131.725 145.28V161.6C127.985 163.3 123.621 164.547 118.635 165.34C113.648 166.247 108.208 166.7 102.315 166.7ZM78.1748 118.59H116.425V114.17C116.425 109.523 115.065 105.897 112.345 103.29C109.625 100.57 105.035 99.21 98.5748 99.21C90.9814 99.21 85.6548 100.74 82.5948 103.8C79.6481 106.86 78.1748 111.79 78.1748 118.59ZM193.603 166.7C179.21 166.7 168.16 163.13 160.453 155.99C152.86 148.85 149.063 138.423 149.063 124.71C149.063 110.543 153.143 100.003 161.303 93.09C169.577 86.1767 180.57 82.72 194.283 82.72C199.95 82.72 204.823 83.1167 208.903 83.91C212.983 84.7033 216.95 86.0067 220.803 87.82V104.31C217.97 102.95 214.683 101.873 210.943 101.08C207.203 100.287 203.18 99.89 198.873 99.89C190.26 99.89 183.687 101.703 179.153 105.33C174.62 108.843 172.353 115.303 172.353 124.71C172.353 133.323 174.393 139.613 178.473 143.58C182.667 147.547 189.41 149.53 198.703 149.53C202.67 149.53 206.523 149.133 210.263 148.34C214.117 147.547 217.687 146.357 220.973 144.77V161.77C213.38 165.057 204.257 166.7 193.603 166.7ZM267.431 166.7C258.138 166.7 251.225 164.263 246.691 159.39C242.271 154.517 240.061 147.887 240.061 139.5V102.1H228.671V84.42H240.061V67.08L263.011 60.28V84.42H283.411L282.051 102.1H263.011V137.97C263.011 142.39 264.031 145.45 266.071 147.15C268.111 148.737 271.285 149.53 275.591 149.53C278.765 149.53 282.051 148.963 285.451 147.83V163.64C282.958 164.66 280.238 165.397 277.291 165.85C274.345 166.417 271.058 166.7 267.431 166.7ZM326.979 166.7C317.346 166.7 309.809 164.037 304.369 158.71C299.042 153.27 296.379 145.337 296.379 134.91V84.42H319.329V134.4C319.329 139.84 320.632 143.807 323.239 146.3C325.846 148.68 329.756 149.87 334.969 149.87C338.936 149.87 342.562 149.077 345.849 147.49C349.249 145.903 352.139 143.92 354.519 141.54V84.42H377.469V165H356.219L355.369 157.35C351.969 160.07 347.946 162.337 343.299 164.15C338.766 165.85 333.326 166.7 326.979 166.7ZM397.004 165V84.42H418.254L419.274 92.75C422.901 90.4833 427.378 88.4433 432.704 86.63C438.144 84.7033 443.471 83.4 448.684 82.72V100.06C445.624 100.513 442.281 101.193 438.654 102.1C435.028 103.007 431.571 104.027 428.284 105.16C424.998 106.293 422.221 107.483 419.954 108.73V165H397.004ZM475.526 194.92C472.013 194.92 468.896 194.693 466.176 194.24C463.456 193.9 460.793 193.22 458.186 192.2V176.05C460.113 176.73 461.869 177.183 463.456 177.41C465.156 177.637 466.856 177.75 468.556 177.75C473.203 177.75 476.773 176.673 479.266 174.52C481.873 172.367 484.479 168.74 487.086 163.64L451.046 84.42H475.016L498.646 139.16L522.106 84.42H545.906L514.116 159.39C511.169 166.417 507.939 172.593 504.426 177.92C501.026 183.36 497.003 187.553 492.356 190.5C487.709 193.447 482.099 194.92 475.526 194.92Z" fill="white"/>
</g>
<defs>
<clipPath id="clip0_5_2">
<rect width="550" height="210" fill="white"/>
</clipPath>
</defs>
</svg>
