<svg width="1018" height="270" viewBox="0 0 1018 270" fill="none" xmlns="http://www.w3.org/2000/svg">
<g clip-path="url(#clip0_3_55)">
<circle cx="270" cy="135" r="135" fill="#0084FF"/>
<path d="M500.13 192.7C492.31 192.7 486.587 190.887 482.96 187.26C479.447 183.633 477.69 177.853 477.69 169.92V76.42H500.64V168.05C500.64 170.883 501.207 172.867 502.34 174C503.473 175.02 505.117 175.53 507.27 175.53C510.217 175.53 512.88 175.133 515.26 174.34V190.15C510.953 191.85 505.91 192.7 500.13 192.7ZM570.315 192.7C556.375 192.7 545.325 189.243 537.165 182.33C529.005 175.303 524.925 164.707 524.925 150.54C524.925 137.733 528.325 127.59 535.125 120.11C542.038 112.517 552.295 108.72 565.895 108.72C578.361 108.72 587.881 112.007 594.455 118.58C601.141 125.04 604.485 133.54 604.485 144.08V158.7H546.175C547.421 165.16 550.368 169.58 555.015 171.96C559.775 174.34 566.461 175.53 575.075 175.53C579.381 175.53 583.745 175.133 588.165 174.34C592.698 173.547 596.551 172.527 599.725 171.28V187.6C595.985 189.3 591.621 190.547 586.635 191.34C581.648 192.247 576.208 192.7 570.315 192.7ZM546.175 144.59H584.425V140.17C584.425 135.523 583.065 131.897 580.345 129.29C577.625 126.57 573.035 125.21 566.575 125.21C558.981 125.21 553.655 126.74 550.595 129.8C547.648 132.86 546.175 137.79 546.175 144.59ZM661.603 192.7C647.21 192.7 636.16 189.13 628.453 181.99C620.86 174.85 617.063 164.423 617.063 150.71C617.063 136.543 621.143 126.003 629.303 119.09C637.577 112.177 648.57 108.72 662.283 108.72C667.95 108.72 672.823 109.117 676.903 109.91C680.983 110.703 684.95 112.007 688.803 113.82V130.31C685.97 128.95 682.683 127.873 678.943 127.08C675.203 126.287 671.18 125.89 666.873 125.89C658.26 125.89 651.687 127.703 647.153 131.33C642.62 134.843 640.353 141.303 640.353 150.71C640.353 159.323 642.393 165.613 646.473 169.58C650.667 173.547 657.41 175.53 666.703 175.53C670.67 175.53 674.523 175.133 678.263 174.34C682.117 173.547 685.687 172.357 688.973 170.77V187.77C681.38 191.057 672.257 192.7 661.603 192.7ZM735.431 192.7C726.138 192.7 719.225 190.263 714.691 185.39C710.271 180.517 708.061 173.887 708.061 165.5V128.1H696.671V110.42H708.061V93.08L731.011 86.28V110.42H751.411L750.051 128.1H731.011V163.97C731.011 168.39 732.031 171.45 734.071 173.15C736.111 174.737 739.285 175.53 743.591 175.53C746.765 175.53 750.051 174.963 753.451 173.83V189.64C750.958 190.66 748.238 191.397 745.291 191.85C742.345 192.417 739.058 192.7 735.431 192.7ZM794.979 192.7C785.346 192.7 777.809 190.037 772.369 184.71C767.042 179.27 764.379 171.337 764.379 160.91V110.42H787.329V160.4C787.329 165.84 788.632 169.807 791.239 172.3C793.846 174.68 797.756 175.87 802.969 175.87C806.936 175.87 810.562 175.077 813.849 173.49C817.249 171.903 820.139 169.92 822.519 167.54V110.42H845.469V191H824.219L823.369 183.35C819.969 186.07 815.946 188.337 811.299 190.15C806.766 191.85 801.326 192.7 794.979 192.7ZM865.004 191V110.42H886.254L887.274 118.75C890.901 116.483 895.378 114.443 900.704 112.63C906.144 110.703 911.471 109.4 916.684 108.72V126.06C913.624 126.513 910.281 127.193 906.654 128.1C903.028 129.007 899.571 130.027 896.284 131.16C892.998 132.293 890.221 133.483 887.954 134.73V191H865.004ZM943.526 220.92C940.013 220.92 936.896 220.693 934.176 220.24C931.456 219.9 928.793 219.22 926.186 218.2V202.05C928.113 202.73 929.869 203.183 931.456 203.41C933.156 203.637 934.856 203.75 936.556 203.75C941.203 203.75 944.773 202.673 947.266 200.52C949.873 198.367 952.479 194.74 955.086 189.64L919.046 110.42H943.016L966.646 165.16L990.106 110.42H1013.91L982.116 185.39C979.169 192.417 975.939 198.593 972.426 203.92C969.026 209.36 965.003 213.553 960.356 216.5C955.709 219.447 950.099 220.92 943.526 220.92Z" fill="white"/>
<g clip-path="url(#clip1_3_55)">
<circle cx="135" cy="135" r="135" fill="#70B01F"/>
<circle cx="270" cy="135" r="135" fill="#156884"/>
</g>
</g>
<defs>
<clipPath id="clip0_3_55">
<rect width="1018" height="270" fill="white"/>
</clipPath>
<clipPath id="clip1_3_55">
<rect width="270" height="270" rx="135" fill="white"/>
</clipPath>
</defs>
</svg>
